<?xml version="1.0" encoding="utf-8"?><svg xmlns="http://www.w3.org/2000/svg" xmlns:xlink="http://www.w3.org/1999/xlink" width="3000" height="2000" preserveAspectRatio="xMidYMid" viewBox="0 0 3000 2000" style="z-index:1;shape-rendering:crispedges;margin-right:-2px;display:block;background-repeat-y:initial;background-repeat-x:initial;background-color:#16213e;animation-play-state:paused" ><g transform="translate(1500,1000) scale(1,1) translate(-1500,-1000)" style="transform:matrix(1, 0, 0, 1, 0, 0);animation-play-state:paused" ><linearGradient id="lg-0.9813755034824414" x1="0" x2="1" y1="0" y2="0" style="animation-play-state:paused" ><stop stop-color="#405A9B" offset="0" style="animation-play-state:paused" ></stop>

  
<stop stop-color="#405A9B" offset="1" style="animation-play-state:paused" ></stop></linearGradient>
<path d="M 0 0 L 0 1496.97 Q 300 1271.23 600 1241.16 T 1200 1208.79 T 1800 578.198 T 2400 315.986 T 3000 100.432 L 3000 0 Z" fill="url(#lg-0.9813755034824414)" opacity="0.2" style="opacity:0.2;animation-play-state:paused" ></path>
<path d="M 0 0 L 0 1795.01 Q 300 1316.88 600 1287.79 T 1200 1151.72 T 1800 841.981 T 2400 513.188 T 3000 35.1583 L 3000 0 Z" fill="url(#lg-0.9813755034824414)" opacity="0.4" style="opacity:0.4;animation-play-state:paused" ></path>
<path d="M 0 0 L 0 1748.94 Q 300 1530.75 600 1493.8 T 1200 1099.37 T 1800 687.773 T 2400 505.286 T 3000 213.073 L 3000 0 Z" fill="url(#lg-0.9813755034824414)" opacity="0.6" style="opacity:0.6;animation-play-state:paused" ></path></g></svg>